<?xml version="1.0" encoding="UTF-8"?> <!-- Generator: Adobe Illustrator 18.0.0, SVG Export Plug-In . SVG Version: 6.00 Build 0) --> <svg xmlns="http://www.w3.org/2000/svg" xmlns:xlink="http://www.w3.org/1999/xlink" id="Layer_1" x="0px" y="0px" viewBox="0 0 232.4 113.4" xml:space="preserve"> <g> <g> <g> <g> <path fill="#A7A6A6" d="M190.7,28.3L41.8,28.5c-0.5,0-1,0-1.5,0c-0.4,0-0.9,0-1.3,0c-0.9,0-1.9,0.1-2.8,0.2 c-0.9,0.2-1.8,0.4-2.7,0.9c-0.8,0.4-1.6,1-2.3,1.7c-0.7,0.7-1.2,1.4-1.7,2.3c-0.4,0.9-0.7,1.7-0.9,2.7c-0.2,0.9-0.2,1.9-0.3,2.8 c0,0.4,0,0.9,0,1.3c0,0.5,0,1,0,1.5v29.6c0,0.5,0,1,0,1.5c0,0.4,0,0.9,0,1.3c0,0.9,0.1,1.9,0.3,2.8c0.2,0.9,0.4,1.8,0.9,2.7 c0.4,0.8,1,1.6,1.7,2.3c0.7,0.7,1.4,1.2,2.3,1.7c0.9,0.4,1.7,0.7,2.7,0.9c0.9,0.2,1.9,0.2,2.8,0.2c0.4,0,0.9,0,1.3,0 c0.5,0,1,0,1.5,0l148.9-0.2c0.5,0,1,0,1.5,0c0.4,0,0.9,0,1.3,0c0.9,0,1.9-0.1,2.8-0.2c0.9-0.2,1.8-0.4,2.7-0.9 c0.8-0.4,1.6-1,2.3-1.7c0.7-0.7,1.2-1.4,1.7-2.3c0.4-0.9,0.7-1.7,0.9-2.7c0.2-0.9,0.2-1.9,0.3-2.8c0-0.4,0-0.9,0-1.3 c0-0.5,0-1,0-1.5V41.8c0-0.5,0-1,0-1.5c0-0.4,0-0.9,0-1.3c0-0.9-0.1-1.9-0.3-2.8c-0.2-0.9-0.4-1.8-0.9-2.7 c-0.4-0.8-1-1.6-1.7-2.3c-0.7-0.7-1.4-1.2-2.3-1.7c-0.9-0.4-1.7-0.7-2.7-0.9c-0.9-0.2-1.9-0.2-2.8-0.2c-0.4,0-0.9,0-1.3,0 C191.7,28.3,191.2,28.3,190.7,28.3L190.7,28.3z"></path> <path fill="#010101" d="M40.2,83.8c-0.4,0-0.8,0-1.3,0c-0.8,0-1.7-0.1-2.6-0.2c-0.9-0.2-1.6-0.4-2.3-0.8c-0.7-0.4-1.4-0.9-2-1.4 c-0.6-0.6-1.1-1.2-1.4-2c-0.4-0.7-0.6-1.5-0.8-2.3c-0.2-1-0.2-1.9-0.2-2.6c0-0.3,0-1.3,0-1.3V40.5c0,0,0-1,0-1.3 c0-0.7,0.1-1.7,0.2-2.6c0.2-0.9,0.4-1.6,0.8-2.3c0.4-0.7,0.9-1.4,1.4-2c0.6-0.6,1.2-1.1,2-1.4c0.7-0.4,1.5-0.6,2.3-0.8 c0.9-0.2,1.9-0.2,2.6-0.2l1.3,0l152-0.2l1.3,0c0.7,0,1.7,0.1,2.6,0.2c0.8,0.1,1.6,0.4,2.4,0.8c0.7,0.4,1.4,0.9,2,1.4 c0.6,0.6,1.1,1.2,1.4,2c0.4,0.7,0.6,1.5,0.8,2.3c0.2,0.9,0.2,1.8,0.2,2.7c0,0.4,0,0.8,0,1.3c0,0.5,0,1,0,1.5v29.6 c0,0.5,0,1,0,1.5c0,0.5,0,0.9,0,1.3c0,0.8-0.1,1.7-0.2,2.6c-0.1,0.9-0.4,1.6-0.8,2.4c-0.4,0.7-0.9,1.4-1.4,2 c-0.6,0.6-1.2,1.1-2,1.4c-0.7,0.4-1.5,0.6-2.3,0.8c-0.9,0.2-1.8,0.2-2.6,0.2c-0.4,0-0.8,0-1.3,0l-1.5,0L40.2,83.8z"></path> </g> </g> </g> <path fill-rule="evenodd" clip-rule="evenodd" fill="#FFFFFF" d="M62,39c-10,0-0.9,0-10.9,0s-12.3,2.4-12.3,12.3 c0,5.6,0,0.9,0,10.9s2.4,12.3,12.3,12.3s0.9,0,10.9,0s12.3-2.4,12.3-12.3s0-0.9,0-10.9C74.4,41.4,72,39,62,39z M67.5,64.4h-2.6 c-1,0-1.3-0.8-3-2.5c-1.5-1.5-2.2-1.7-2.6-1.7c-0.5,0-0.7,0.1-0.7,0.9v2.3c0,0.6-0.2,1-1.9,1c-2.7,0-5.8-1.7-7.9-4.7 c-3.2-4.5-4.1-7.9-4.1-8.6c0-0.4,0.1-0.7,0.9-0.7h2.6c0.7,0,0.9,0.3,1.2,1c1.3,3.7,3.4,6.9,4.3,6.9c0.3,0,0.5-0.2,0.5-1v-3.8 c-0.1-1.8-1-1.9-1-2.5c0-0.3,0.2-0.6,0.7-0.6h4.1c0.5,0,0.7,0.3,0.7,1v5.1c0,0.5,0.2,0.7,0.4,0.7c0.3,0,0.6-0.2,1.2-0.8 c1.9-2.1,3.2-5.3,3.2-5.3c0.2-0.4,0.5-0.7,1.1-0.7h2.6c0.8,0,0.9,0.4,0.8,1c-0.3,1.5-3.5,6-3.5,6c-0.3,0.4-0.4,0.7,0,1.2 c0.3,0.4,1.2,1.2,1.8,1.9c1.1,1.3,2,2.3,2.2,3C68.6,64,68.3,64.4,67.5,64.4z"></path> <g> <path fill="#FFFFFF" d="M83.8,44.6c0,2,1.5,3.5,3,3.5c1.4,0,2.3-0.9,2.6-2h1.2c-0.5,1.7-1.8,3-3.8,3c-2.2,0-4.1-2-4.1-4.5 s2-4.5,4.1-4.5c1.9,0,3.2,1.3,3.7,3h-1.2c-0.3-1.1-1.2-2-2.5-2C85.3,41.1,83.8,42.6,83.8,44.6z"></path> <path fill="#FFFFFF" d="M96.8,42.7V49h-1.1v-5.4h-2.3L93.2,47c-0.1,1.3-0.8,2.1-1.9,2.1c-0.2,0-0.4-0.1-0.4-0.1v-0.9H91 c0.7,0,1-0.4,1.1-1.1l0.4-4.3H96.8z"></path> <path fill="#FFFFFF" d="M97.9,42.7H99l1.9,4.8l1.9-4.8h1.1l-2.7,6.9c-0.5,1.3-1,1.8-1.8,1.8c-0.2,0-0.4-0.1-0.4-0.1v-0.8 c0.6,0,0.9-0.3,1.1-0.8l0.3-0.7L97.9,42.7z"></path> <path fill="#FFFFFF" d="M112.8,42.7V49h-7.8v-6.3h1.1V48h2.3v-5.3h1.1V48h2.3v-5.3H112.8z"></path> <path fill="#FFFFFF" d="M119.4,44.8V49h-0.8l-0.3-0.7c0,0-0.6,0.8-1.9,0.8s-2.1-0.8-2.1-1.9c0-1.2,0.8-2,4-2v-0.3 c0-0.6-0.6-1.2-1.3-1.2s-1.1,0.3-1.3,0.9h-1.1c0.1-1.1,1-1.9,2.4-1.9C118.4,42.7,119.4,43.6,119.4,44.8z M118.4,46.6v-0.5 c-2.5,0-2.9,0.4-2.9,1.1c0,0.4,0.4,0.8,1.1,0.8C117.6,48.1,118.4,47.3,118.4,46.6z"></path> <path fill="#FFFFFF" d="M126.5,42.7V49h-1.1v-4.7l-3.2,4.7h-1.1v-6.3h1.1v4.7l3.2-4.7H126.5z M122.2,40.2h0.8 c0.1,0.5,0.4,0.8,0.8,0.8c0.4,0,0.8-0.4,0.8-0.8h0.8c-0.1,0.8-0.8,1.5-1.7,1.5C123,41.7,122.3,41,122.2,40.2z"></path> <path fill="#FFFFFF" d="M127.7,42.7h5v1h-2V49h-1.1v-5.3h-2V42.7z"></path> <path fill="#FFFFFF" d="M138.9,47.3c-0.4,0.9-1.3,1.8-2.6,1.8c-1.6,0-2.9-1.3-2.9-3.2c0-1.9,1.3-3.2,2.9-3.2 c1.5,0,2.8,1.3,2.8,3.2c0,0.4-0.1,0.6-0.1,0.6h-4.5c0.1,0.9,0.9,1.8,1.8,1.8c0.8,0,1.3-0.5,1.5-0.8H138.9z M134.5,45.5h3.4 c-0.1-1.1-0.8-1.8-1.7-1.8C135.4,43.6,134.6,44.4,134.5,45.5z"></path> </g> <g> <path fill="#FFFFFF" d="M95.4,68.3c0,2.6-2.3,4.9-5.4,4.9h-6.9v-17h6.7c2.7,0,4.9,2.2,4.9,4.7c0,2.2-1.8,3.2-1.8,3.2 S95.4,65.3,95.4,68.3z M85.7,63.2h4.2c1.3,0,2.4-1.1,2.4-2.3c0-1.2-1.1-2.3-2.4-2.3h-4.2V63.2z M92.9,68c0-1.5-1.2-2.7-2.8-2.7 h-4.3v5.4H90C91.6,70.7,92.9,69.5,92.9,68z"></path> <path fill="#FFFFFF" d="M107.3,73.2l-6.7-8v8H98v-17h2.6V64l6.2-7.8h3.1l-6.9,8.4l7.4,8.6H107.3z"></path> <path fill="#FFFFFF" d="M116,73.3c-3.2,0-5.8-2.6-5.8-6.2c0-3.6,2.6-6.2,5.8-6.2s5.8,2.6,5.8,6.2C121.8,70.7,119.3,73.3,116,73.3z M116,63.2c-1.8,0-3.4,1.6-3.4,3.9c0,2.3,1.6,3.9,3.4,3.9c1.8,0,3.4-1.6,3.4-3.9C119.4,64.8,117.8,63.2,116,63.2z"></path> <path fill="#FFFFFF" d="M134.9,61v12.1h-2.4v-5h-5.8v5h-2.4V61h2.4v4.9h5.8V61H134.9z"></path> <path fill="#FFFFFF" d="M136.8,61h10v2.3H143v9.9h-2.4v-9.9h-3.8V61z"></path> <path fill="#FFFFFF" d="M158,65.2v8h-1.8l-0.5-1.2c0,0-1.1,1.3-3.5,1.3c-2.7,0-4.2-1.5-4.2-3.6c0-2.4,1.6-4,7.6-4v-0.4 c0-1.2-0.8-2-2.3-2c-1.6,0-2.3,0.7-2.4,1.5h-2.4c0.1-2.2,1.9-3.8,4.9-3.8C156.1,60.9,158,62.8,158,65.2z M155.6,68.4v-0.6 c-4.3,0-5.1,0.8-5.1,2c0,0.7,0.7,1.3,1.9,1.3C154.3,71.1,155.6,69.9,155.6,68.4z"></path> <path fill="#FFFFFF" d="M168.2,73.2l-4.7-5.8v5.8H161V61h2.4v5.3l4.2-5.3h2.8l-4.7,5.7l5.4,6.5H168.2z"></path> <path fill="#FFFFFF" d="M171.7,61h10v2.3h-3.8v9.9h-2.4v-9.9h-3.8V61z"></path> <path fill="#FFFFFF" d="M193.9,69.7c-0.8,2-2.4,3.6-5.3,3.6c-3.2,0-5.8-2.6-5.8-6.2c0-3.6,2.6-6.2,5.7-6.2s5.7,2.6,5.7,6.2 c0,0.5-0.1,1.1-0.1,1.1h-8.6c0.1,1.5,1.5,2.8,3.2,2.8c1.5,0,2.3-0.8,2.7-1.3H193.9z M185.4,66.1h6.5c-0.3-1.8-1.5-3-3.4-3 C186.9,63.2,185.7,64.4,185.4,66.1z"></path> </g> </g> </svg> 